<svg version="1.2" xmlns="http://www.w3.org/2000/svg" viewBox="0 0 996 802" width="996" height="802">
	<title>Novo Projeto</title>
	<defs>
		<linearGradient id="g1" x1="20631.8" y1="15691.5" x2="20631.8" y2="15068.5" gradientUnits="userSpaceOnUse">
			<stop offset="0" stop-color="#808080" stop-opacity=".3"/>
			<stop offset=".5" stop-color="#808080" stop-opacity=".1"/>
			<stop offset="1" stop-color="#808080" stop-opacity=".1"/>
		</linearGradient>
		<linearGradient id="g2" x1="358579.5" y1="412340.1" x2="358579.5" y2="25175.6" gradientUnits="userSpaceOnUse">
			<stop offset="0" stop-color="#808080" stop-opacity=".3"/>
			<stop offset=".5" stop-color="#808080" stop-opacity=".1"/>
			<stop offset="1" stop-color="#808080" stop-opacity=".1"/>
		</linearGradient>
		<linearGradient id="g3" x1="630.4" y1="676.6" x2="630.4" y2="738.7" gradientUnits="userSpaceOnUse">
			<stop offset="0" stop-color="#e0e0e0"/>
			<stop offset=".3" stop-color="#fccc63"/>
			<stop offset=".8" stop-color="#f55f44"/>
		</linearGradient>
		<linearGradient id="g4" x1="630.4" y1="676.6" x2="630.4" y2="738.7" gradientUnits="userSpaceOnUse">
			<stop offset="0" stop-color="#e0e0e0"/>
			<stop offset=".3" stop-color="#fccc63"/>
			<stop offset=".8" stop-color="#f55f44"/>
		</linearGradient>
		<linearGradient id="g5" x1="692.1" y1="603.1" x2="692.1" y2="665.2" gradientUnits="userSpaceOnUse">
			<stop offset="0" stop-color="#e0e0e0"/>
			<stop offset=".3" stop-color="#fccc63"/>
			<stop offset=".8" stop-color="#f55f44"/>
		</linearGradient>
		<linearGradient id="g6" x1="730.4" y1="556.9" x2="730.4" y2="618.9" gradientUnits="userSpaceOnUse">
			<stop offset="0" stop-color="#e0e0e0"/>
			<stop offset=".3" stop-color="#fccc63"/>
			<stop offset=".8" stop-color="#f55f44"/>
		</linearGradient>
		<linearGradient id="g7" x1="793.5" y1="483.3" x2="793.5" y2="545.3" gradientUnits="userSpaceOnUse">
			<stop offset="0" stop-color="#e0e0e0"/>
			<stop offset=".3" stop-color="#fccc63"/>
			<stop offset=".8" stop-color="#f55f44"/>
		</linearGradient>
	</defs>
	<style>
		.s0 { fill: #ffffff } 
		.s1 { opacity: .7;fill: url(#g1) } 
		.s2 { opacity: .7;fill: url(#g2) } 
		.s3 { fill: #535461 } 
		.s4 { opacity: .1;fill: #000000 } 
		.s5 { fill: #e0e0e0 } 
		.s6 { fill: url(#g3) } 
		.s7 { fill: url(#g4) } 
		.s8 { fill: url(#g5) } 
		.s9 { fill: url(#g6) } 
		.s10 { fill: url(#g7) } 
		.s11 { fill: #eeeeee } 
	</style>
	<path id="Layer" class="s0" d="m93.7 387.3h-2.4v2.4h-1v-2.4h-2.4v-1h2.4v-2.4h1v2.4h2.4z" />
	<path id="Layer" class="s0" d="m691.6 751.9l-3.7 4.3l3.7 3.1l-1.5 1.8l-3.7-3.2l-3.7 4.3l-1.5-1.3l3.7-4.3l-3.7-3.2l1.5-1.7l3.7 3.2l3.7-4.3z" />
	<path id="Layer" class="s0" d="m427.7 151.1l-1.7 2l1.7 1.4l-0.7 0.8l-1.7-1.4l-1.7 1.9l-0.6-0.5l1.6-2l-1.6-1.4l0.7-0.8l1.6 1.4l1.7-1.9z" />
	<path id="Layer" class="s0" d="m1018.6 388.8h-2.6v2.2h-1v-2.2h-2.6v-0.9h2.6v-2.2h1.1l-0.1 2.2h2.6z" />
	<path id="Layer" class="s0" d="m780.9 256.8l-1.7 2l1.7 1.4l-0.7 0.8l-1.6-1.4l-1.7 1.9l-0.7-0.5l1.7-2l-1.7-1.5l0.7-0.7l1.7 1.4l1.6-1.9z" />
	<path id="Layer" class="s0" d="m-11.6 350.7h-1.1v1.1h-0.4v-1.1h-1.1v-0.4h1.1v-1.1h0.4v1.1h1.1z" />
	<path id="Layer" class="s0" d="m33.9 441.5h-1.1v1.1h-0.5v-1.1h-1.1v-0.4h1.1v-1.1h0.5v1.1h1.1z" />
	<path id="Layer" class="s0" d="m256.9 390.2l-1.6 1.9l1.6 1.5l-0.6 0.8l-1.7-1.5l-1.7 2l-0.7-0.6l1.7-1.9l-1.7-1.5l0.7-0.8l1.7 1.5l1.7-2z" />
	<path id="Layer" class="s0" d="m109.3 314.4h-1.1v1.1h-0.5v-1.1h-1.1v-0.5h1.1v-1.1h0.5v1.1h1.1z" />
	<path id="Layer" class="s0" d="m349.3 632.6l-1.6 2l1.6 1.4l-0.6 0.8l-1.7-1.4l-1.7 1.9l-0.7-0.6l1.7-1.9l-1.7-1.5l0.7-0.8l1.7 1.5l1.7-2z" />
	<g id="Layer" style="opacity: .7">
		<path id="Layer" class="s1" d="m836.7 372.9c-5.2-4.5-5.2-12.9 0-18.9c5.2-6 13.6-7.3 18.7-2.8c5.2 4.4 5.2 12.9 0 18.9c-5.2 6-13.6 7.2-18.7 2.8z" />
	</g>
	<g id="Layer" style="opacity: .7">
		<path id="Layer" class="s2" d="m799 450l-22 25.5l20.7 12.3l53.6 46.3l-20.3 23.6l-53.7-46.3l-15.2-18.6l-21.7 25.1l0.3 0.3l-6.5 7.6l-199.2-171.8l-8 9.4l197.9 170.7l-15.9 18.4l21.7 12.9l53.7 46.3l-20.4 23.7l-53.7-46.3l-15.9-19.6l-26.8 31.1l21.6 12.9l53.7 46.3l-20.4 23.7l-53.6-46.3l-16-19.6l-19.9 23.1l-198-170.7l-7 8.1l198.9 171.4l-24.5 28.5l20.6 12.3l53.7 46.3l-20.4 23.6l-53.6-46.2l-15.2-18.7l-25 28.9l-218.3-188.3c-20.4-17.5-35.6-40.4-44.2-66.9c-4-12.5-5.2-21.7-5.3-28.1c0-1.6 0.2-3.3 0.8-4.8l-0.4 0.2c0.8-2.6 2.3-4.9 4.4-6.7c2.1-1.7 4.6-2.8 7.1-3.1c8.6-1.1 18.2-0.6 27.7 0.9c28.4 4.4 54.1 16.2 75 34.4l13.1 11.4l7-8.1l-144.6-124.8c-31.5-27.1-55.4-62.3-68.7-102.2c-4.4-13.5-7.7-27.3-8.2-40c-0.1-2.3 0.2-4.7 1-7.1c0.8-2.3 2.1-4.5 3.8-6.4c1.6-1.9 3.6-3.4 5.8-4.6c2.1-1.2 4.5-1.8 6.8-2c9.3-1 23-1 42.1 2.6c40.2 7.5 77.3 25.5 107.9 51.9l146.1 126l8.1-9.3l-12.6-10.9c-21-17.9-36.6-41.7-45.1-69.1c-2.9-9.1-4.8-18.6-5-27.3c0-1.9 0.4-3.8 1.2-5.7c0.9-2.5 2.4-4.7 4.5-6.4c2-1.7 4.4-2.8 6.9-3.1c6.4-0.8 15.7-1 28.6 1.1c27.5 4.7 52.4 16.3 72.7 33.9z" />
	</g>
	<path id="Layer" class="s3" d="m616.6 676.6l-19.3 22.4l-19.9-24.1l12.4-14.4z" />
	<g id="Layer" style="opacity: .1">
		<path id="Layer" class="s4" d="m580.2 677.2l12.3-14.3l7.5 4.5l-14.3 16.6z" />
	</g>
	<path id="Layer" class="s3" d="m781.9 484.9l-19.2 22.4l-20-24.2l12.4-14.3z" />
	<g id="Layer" style="opacity: .1">
		<path id="Layer" class="s4" d="m745.5 485.5l12.4-14.4l7.5 4.6l-14.4 16.6z" />
	</g>
	<path id="Layer" class="s3" d="m679.3 604l-19.3 22.3l-19.9-24.1l12.4-14.4z" />
	<g id="Layer" style="opacity: .1">
		<path id="Layer" class="s4" d="m642.8 604.5l12.4-14.3l7.5 4.5l-14.3 16.6z" />
	</g>
	<path id="Layer" class="s3" d="m718.6 558.4l-19.3 22.4l-20-24.2l12.4-14.3z" />
	<g id="Layer" style="opacity: .1">
		<path id="Layer" class="s4" d="m682.1 559l12.4-14.4l7.5 4.5l-14.3 16.7z" />
	</g>
	<path id="Layer" class="s3" d="m400 489.8l137.8-159.7l5.5 4.7l-137.8 159.8z" />
	<path id="Layer" class="s5" d="m499.7 231.9c26.6 4.8 50.7 16.3 70.4 33.4l212.6 183.4l-60.9 70.7l-211.8-182.6c-20.4-17.4-35.6-40.3-44.3-66.8c-2.8-8.8-4.8-17.9-5.1-26.2c0-1.5 0.2-3.1 0.8-4.7c0.5-1.5 1.4-2.9 2.4-4.2c1.1-1.2 2.4-2.3 3.9-3.1c1.4-0.7 2.9-1.2 4.4-1.4c6.1-0.7 15.1-0.7 27.6 1.5z" />
	<path id="Layer" class="s5" d="m297.3 433.2c-0.1-1.5 0.2-3.1 0.7-4.6c0.6-1.6 1.4-3 2.5-4.3c1.1-1.2 2.4-2.3 3.8-3c1.4-0.8 3-1.3 4.5-1.4c8.3-1 17.6-0.4 26.7 1.1c27.4 4.7 52.4 16.4 72.6 34l211.7 182.6l-61 70.7l-212.6-183.3c-19.8-17-34.7-39.2-43.4-64.7c-4-12-5.4-21-5.5-27.1z" />
	<path id="Layer" class="s3" d="m351.1 528.5l14.5-16.8l17.8 15.4l-14.4 16.8z" />
	<path id="Layer" class="s3" d="m397.2 474.9l14.6-16.7l17.8 15.4l-14.5 16.8z" />
	<path id="Layer" class="s3" d="m513.7 339.9l14.5-16.7l17.8 15.4l-14.5 16.8z" />
	<path id="Layer" class="s3" d="m559.8 286.4l14.6-16.7l17.8 15.4l-14.5 16.7z" />
	<g id="Layer" style="opacity: .1">
		<path id="Layer" class="s4" d="m407.8 454.8l211.7 182.6l-6.9 7.9l-211.7-182.5c-20.2-17.6-45.1-29.3-72.5-34c-9.2-1.5-18.5-2.2-26.8-1.2c-1.3 0.2-2.7 0.6-4 1.2c0.7-2.4 2.2-4.6 4.2-6.3c2-1.6 4.3-2.7 6.7-2.9c8.3-1 17.6-0.3 26.7 1.2c27.5 4.7 52.4 16.4 72.6 34z" />
	</g>
	<g id="Layer" style="opacity: .1">
		<path id="Layer" class="s4" d="m515.9 330.7l211.7 182.6l-6.2 7.2l-211.7-182.6c-20.5-17.4-35.7-40.4-44.3-66.8c-2.9-8.8-4.9-17.9-5.1-26.3c-0.2-2.3 0.5-4.6 1.7-6.8c1.3-2.1 3.1-3.9 5.2-5.1c-0.5 1.6-0.8 3.2-0.7 4.8c0.2 8.3 2.2 17.4 5.1 26.2c8.6 26.5 23.8 49.4 44.3 66.8z" />
	</g>
	<path id="Layer" class="s6" d="m659.5 732.6l-0.5 0.6c-2.5 2.9-5.9 4.8-9.4 5.3c-3.5 0.6-6.9-0.3-9.4-2.5l-42.9-37l19.3-22.4l42.9 37c2.5 2.2 3.9 5.4 3.9 8.9c0 3.6-1.4 7.2-3.9 10.1z" />
	<path id="Layer copy 3" class="s7" d="m659.5 732.6l-0.5 0.6c-2.5 2.9-5.9 4.8-9.4 5.3c-3.5 0.6-6.9-0.3-9.4-2.5l-42.9-37l19.3-22.4l42.9 37c2.5 2.2 3.9 5.4 3.9 8.9c0 3.6-1.4 7.2-3.9 10.1z" />
	<path id="Layer copy 2" class="s8" d="m721.2 659.1l-0.5 0.6c-2.5 2.9-5.8 4.8-9.4 5.3c-3.5 0.5-6.9-0.4-9.3-2.5l-42.9-37l19.3-22.4l42.9 37c2.4 2.2 3.8 5.4 3.8 8.9c0 3.6-1.4 7.2-3.9 10.1z" />
	<path id="Layer copy 4" class="s9" d="m759.5 612.9l-0.5 0.6c-2.5 2.9-5.9 4.8-9.4 5.3c-3.5 0.5-6.9-0.4-9.3-2.5l-42.9-37l19.2-22.4l42.9 37c2.5 2.1 3.9 5.3 3.9 8.9c0 3.6-1.4 7.2-3.9 10.1z" />
	<path id="Layer copy" class="s10" d="m822.7 539.2l-0.6 0.6c-2.5 2.9-5.8 4.8-9.3 5.4c-3.6 0.5-6.9-0.4-9.4-2.6l-42.9-37l19.3-22.3l42.9 37c2.5 2.1 3.9 5.3 3.9 8.9c0 3.5-1.4 7.1-3.9 10z" />
	<path id="Layer" class="s11" d="m266.8 182.9c38.8 7.8 74.8 25.6 104.6 51.3l341.1 294.2l-87 100.8l-339.8-292.9c-30.6-26.5-54.1-60.5-67.4-99c-4.4-13-7.7-26.3-8.4-38.5c-0.1-2.1 0.1-4.4 0.9-6.7c0.8-2.2 2-4.3 3.5-6.1c1.6-1.8 3.5-3.3 5.6-4.4c2-1 4.3-1.7 6.5-1.8c8.9-0.8 22.1-0.6 40.4 3.1z" />
	<path id="Layer" class="s3" d="m286.6 204.3l2.9 2.5c5 4.3 5 12.4 0 18.1l-27.5 31.9c-4.9 5.7-12.9 6.9-17.9 2.7l-2.9-2.6c-4.9-4.2-4.9-12.3 0-18l27.5-31.9c5-5.8 13-7 17.9-2.7z" />
	<g id="Layer" style="opacity: .1">
		<path id="Layer" class="s4" d="m297.8 345.7l86.1-99.8l3.4 2.8l-86.1 99.9z" />
	</g>
	<g id="Layer" style="opacity: .1">
	</g>
	<g id="Layer" style="opacity: .1">
	</g>
	<g id="Layer" style="opacity: .1">
	</g>
	<g id="Layer" style="opacity: .1">
	</g>
	<g id="Layer" style="opacity: .1">
		<path id="Layer" class="s4" d="m102.7 348.8c0-0.4 0.3-0.7 0.7-0.7c0.3 0 0.6 0.3 0.6 0.7c0 0.3-0.3 0.6-0.6 0.6c-0.4 0-0.7-0.3-0.7-0.6z" />
	</g>
	<g id="Layer" style="opacity: .1">
		<path id="Layer" class="s4" d="m448 728c0.9 0.8 1.6 1.9 1.8 3.2c0.3 1.2 0.2 2.6-0.3 3.9c-0.5 1.4-1.3 2.6-2.4 3.5c-1 1-2.3 1.6-3.6 1.9c-1.3 0.3-2.7 0.2-3.8-0.3c-1.2-0.5-2.1-1.3-2.7-2.4c-0.6-1.1-0.9-2.4-0.8-3.8c0.1-1.3 0.6-2.7 1.4-3.9c3.4-1.4 6.9-2.1 10.4-2.1z" />
	</g>
	<g id="Layer" style="opacity: .1">
		<path id="Layer" class="s4" d="m470 746.2c0.7 3.8 0.5 7.8-0.6 11.8c-1.1 3.9-2.9 7.7-5.5 11q-0.4-0.3-0.8-0.7c-1.6-1.4-2.8-3.3-3.3-5.4c-0.5-2.2-0.4-4.6 0.3-6.8c0.7-2.3 2-4.5 3.8-6.2c1.7-1.8 3.8-3.1 6.1-3.7z" />
	</g>
	<path id="Layer" class="s0" d="m391 371.7c-0.4-0.3-0.5-1-0.1-1.4c0.3-0.4 1-0.4 1.4-0.1c0.4 0.4 0.4 1 0.1 1.4c-0.4 0.4-1 0.5-1.4 0.1z" />
</svg>