<svg width="607" height="435" viewBox="0 0 607 435" fill="none" xmlns="http://www.w3.org/2000/svg">
<path d="M142.737 315.322H140.31V312.896H139.32V315.322H136.893V316.31H139.32V318.73H140.31V316.31H142.737V315.322Z" fill="white"/>
<path d="M229.896 364.473H227.469V362.048H226.479V364.473H224.052V365.462H226.479V367.882H227.469V365.462H229.896V364.473Z" fill="white"/>
<path d="M351.293 69.8323H350.186V68.7264H349.737V69.8323H348.63V70.2811H349.737V71.387H350.186V70.2811H351.293V69.8323Z" fill="white"/>
<path d="M509.034 171.341H507.928V170.235H507.478V171.341H506.372V171.789H507.478V172.895H507.928V171.789H509.034V171.341Z" fill="white"/>
<path d="M415.994 237.588H414.887V236.482H414.438V237.588H413.331V238.037H414.438V239.143H414.887V238.037H415.994V237.588Z" fill="white"/>
<path d="M37.4141 279.26H36.3072V278.154H35.8581V279.26H34.7512V279.709H35.8581V280.814H36.3072V279.709H37.4141V279.26Z" fill="white"/>
<path d="M82.865 370.083H81.7582V368.977H81.309V370.083H80.2021V370.532H81.309V371.637H81.7582V370.532H82.865V370.083Z" fill="white"/>
<path d="M225.635 83.1886H224.528V82.0827H224.079V83.1886H222.972V83.6374H224.079V84.7433H224.528V83.6374H225.635V83.1886Z" fill="white"/>
<path d="M158.26 242.93H157.153V241.825H156.704V242.93H155.597V243.379H156.704V244.485H157.153V243.379H158.26V242.93Z" fill="white"/>
<path d="M172.698 196.985H171.591V195.879H171.142V196.985H170.035V197.433H171.142V198.539H171.591V197.433H172.698V196.985Z" fill="white"/>
<g opacity="0.7">
<path opacity="0.7" d="M400.049 303.013C403.451 303.013 406.209 300.257 406.209 296.858C406.209 293.459 403.451 290.703 400.049 290.703C396.647 290.703 393.889 293.459 393.889 296.858C393.889 300.257 396.647 303.013 400.049 303.013Z" fill="url(#paint0_linear_801_2)"/>
</g>
<g opacity="0.7">
<path opacity="0.7" d="M358.244 164.032C358.288 150.642 355.077 137.442 348.887 125.566C345.951 119.988 343.272 116.526 341.208 114.394C340.42 113.562 339.39 112.998 338.264 112.782C337.138 112.565 335.972 112.707 334.931 113.187C334.098 113.482 333.346 113.967 332.733 114.603C329.947 117.488 327.429 121.302 325.247 125.357C318.738 137.516 315.362 151.103 315.424 164.892V173.162H310.114V76.9913C310.114 56.8393 305.601 36.9597 296.746 19.3293C292.554 10.9736 288.726 5.78066 285.79 2.59116C285.077 1.77946 284.2 1.1291 283.215 0.683544C282.231 0.237989 281.163 0.00750732 280.082 0.00750732C279.001 0.00750732 277.933 0.237989 276.949 0.683544C275.964 1.1291 275.087 1.77946 274.374 2.59116C270.396 6.91328 266.802 12.6298 263.68 18.7043C254.381 36.7193 249.659 57.1705 249.659 77.9102V173.125H245.071V164.454C245.13 150.674 241.754 137.097 235.249 124.946C233.051 120.891 230.532 117.076 227.763 114.191C226.958 113.338 225.901 112.764 224.746 112.554C223.591 112.345 222.4 112.51 221.346 113.027L221.539 113.128C220.867 113.427 220.259 113.851 219.747 114.378C217.689 116.515 215.01 119.972 212.074 125.55C205.884 137.426 202.672 150.626 202.717 164.016V307.73H219.1L217.293 319.542V354.873H230.693V319.542L228.902 307.725H245.05V176.833H249.638V307.158H262.722L260.846 319.542V354.873H274.246V319.542L272.369 307.142H290.014L288.127 319.542V354.873H301.527V319.542L299.65 307.142H310.098V176.849H315.408V307.939H319.713V307.741H333.947L332.161 319.542V354.873H345.561V319.542L343.769 307.725H358.244V164.032Z" fill="url(#paint1_linear_801_2)"/>
</g>
<path d="M233.35 312.672H220.662L222.929 297.28H231.083L233.35 312.672Z" fill="#535461"/>
<g opacity="0.1">
<path opacity="0.1" d="M222.298 303.392H231.714L231.083 299.091H222.929L222.298 303.392Z" fill="black"/>
</g>
<path d="M342.085 312.672H329.402L331.663 297.28H339.823L342.085 312.672Z" fill="#535461"/>
<g opacity="0.1">
<path opacity="0.1" d="M331.032 303.392H340.454L339.823 299.091H331.663L331.032 303.392Z" fill="black"/>
</g>
<path d="M274.577 312.672H261.894L264.155 297.28H272.315L274.577 312.672Z" fill="#535461"/>
<g opacity="0.1">
<path opacity="0.1" d="M263.524 303.392H272.946L272.315 299.091H264.155L263.524 303.392Z" fill="black"/>
</g>
<path d="M300.404 312.672H287.72L289.982 297.28H298.137L300.404 312.672Z" fill="#535461"/>
<g opacity="0.1">
<path opacity="0.1" d="M289.352 303.392H298.773L298.137 299.091H289.983L289.352 303.392Z" fill="black"/>
</g>
<path d="M323.964 170.08H233.351V173.702H323.964V170.08Z" fill="#535461"/>
<path d="M337.968 112.872C337.489 112.343 336.905 111.921 336.253 111.632C335.601 111.343 334.895 111.194 334.182 111.194C333.469 111.194 332.763 111.343 332.111 111.632C331.459 111.921 330.875 112.343 330.396 112.872C327.76 115.682 325.375 119.395 323.295 123.343C317.125 135.224 313.934 148.424 313.996 161.809V301.164H354.1V161.222C354.15 148.207 351.114 135.366 345.24 123.749C342.454 118.321 339.92 114.923 337.968 112.872Z" fill="#E0E0E0"/>
<path d="M222.966 112.872C223.445 112.343 224.029 111.921 224.681 111.632C225.333 111.343 226.039 111.194 226.752 111.194C227.465 111.194 228.171 111.343 228.823 111.632C229.475 111.921 230.059 112.343 230.538 112.872C233.179 115.682 235.559 119.395 237.644 123.343C243.812 135.225 247.003 148.425 246.943 161.809V301.164H206.839V161.222C206.789 148.207 209.825 135.366 215.699 123.749C218.48 118.321 221.015 114.923 222.966 112.872Z" fill="#E0E0E0"/>
<path d="M207.069 164.192L216.587 164.24V175.962H207.069V164.192Z" fill="#535461"/>
<path d="M237.425 164.192L246.943 164.24V175.962H237.425V164.192Z" fill="#535461"/>
<path d="M313.997 164.192L323.509 164.24V175.962H313.997V164.192Z" fill="#535461"/>
<path d="M344.352 164.192L353.865 164.24V175.962H344.352V164.192Z" fill="#535461"/>
<g opacity="0.1">
<path opacity="0.1" d="M237.644 123.162C235.559 119.213 233.179 115.5 230.538 112.69C229.792 111.864 228.795 111.305 227.701 111.099C226.606 110.894 225.475 111.053 224.479 111.552C225.053 111.838 225.571 112.223 226.009 112.69C228.645 115.5 231.03 119.213 233.11 123.162C239.28 135.042 242.471 148.243 242.409 161.628V300.972H246.943V161.633C247.004 148.247 243.813 135.045 237.644 123.162V123.162Z" fill="black"/>
</g>
<g opacity="0.1">
<path opacity="0.1" d="M326.921 123.546C329.001 119.598 331.386 115.885 334.022 113.075C334.515 112.543 335.112 112.117 335.776 111.825C334.796 111.396 333.706 111.286 332.66 111.511C331.614 111.735 330.665 112.282 329.947 113.075C327.306 115.885 324.921 119.598 322.841 123.546C316.673 135.428 313.482 148.628 313.542 162.012V301.378H317.622V162.023C317.558 148.634 320.749 135.43 326.921 123.546V123.546Z" fill="black"/>
</g>
<path d="M227.18 347.078H226.832C225.196 347.078 223.626 346.428 222.469 345.272C221.312 344.116 220.662 342.548 220.662 340.913V312.672H233.35V340.913C233.35 342.548 232.7 344.116 231.543 345.272C230.386 346.428 228.816 347.078 227.18 347.078Z" fill="url(#paint2_linear_801_2)"/>
<path d="M268.412 347.078H268.059C266.423 347.076 264.855 346.426 263.699 345.27C262.543 344.114 261.894 342.547 261.894 340.913V312.672H274.577V340.913C274.577 342.547 273.928 344.114 272.772 345.27C271.616 346.426 270.047 347.076 268.412 347.078Z" fill="url(#paint3_linear_801_2)"/>
<path d="M294.233 347.078H293.875C292.241 347.074 290.676 346.422 289.522 345.266C288.368 344.111 287.72 342.545 287.72 340.913V312.672H300.404V340.913C300.404 342.548 299.754 344.116 298.597 345.272C297.439 346.428 295.87 347.078 294.233 347.078Z" fill="url(#paint4_linear_801_2)"/>
<path d="M335.92 347.078H335.583C334.772 347.079 333.968 346.921 333.218 346.612C332.468 346.302 331.787 345.849 331.213 345.276C330.639 344.703 330.183 344.023 329.872 343.274C329.562 342.526 329.402 341.723 329.402 340.913V312.672H342.085V340.913C342.085 342.547 341.436 344.114 340.28 345.27C339.124 346.426 337.555 347.077 335.92 347.078Z" fill="url(#paint5_linear_801_2)"/>
<path d="M285.501 3.60623C284.839 2.81863 284.012 2.1854 283.078 1.75097C282.145 1.31654 281.128 1.09143 280.098 1.09143C279.068 1.09143 278.051 1.31654 277.118 1.75097C276.184 2.1854 275.357 2.81863 274.695 3.60623C270.952 7.81615 267.53 13.3777 264.535 19.2973C255.734 36.8421 251.263 56.7591 251.263 76.9539V300.598H308.478V76.0564C308.478 56.4332 304.2 37.0559 295.837 19.9063C291.907 11.7696 288.287 6.71024 285.501 3.60623Z" fill="#EEEEEE"/>
<path d="M288.549 28.449H270.454C267.206 28.449 264.573 31.0802 264.573 34.3258V36.2438C264.573 39.4895 267.206 42.1206 270.454 42.1206H288.549C291.798 42.1206 294.431 39.4895 294.431 36.2438V34.3258C294.431 31.0802 291.798 28.449 288.549 28.449Z" fill="#535461"/>
<g opacity="0.1">
<path opacity="0.1" d="M308.206 84.5991H251.574V86.7949H308.206V84.5991Z" fill="black"/>
</g>
<g opacity="0.1">
<path opacity="0.1" d="M381.788 185.135C382.293 185.135 382.702 184.726 382.702 184.221C382.702 183.717 382.293 183.308 381.788 183.308C381.283 183.308 380.874 183.717 380.874 184.221C380.874 184.726 381.283 185.135 381.788 185.135Z" fill="black"/>
</g>
<g opacity="0.1">
<path opacity="0.1" d="M400.353 181.785C402.202 181.785 403.701 180.288 403.701 178.441C403.701 176.594 402.202 175.096 400.353 175.096C398.504 175.096 397.006 176.594 397.006 178.441C397.006 180.288 398.504 181.785 400.353 181.785Z" fill="black"/>
</g>
<g opacity="0.1">
<path opacity="0.1" d="M406.166 166.933C406.156 167.807 405.895 168.66 405.414 169.391C404.932 170.121 404.251 170.698 403.451 171.053C402.651 171.407 401.766 171.525 400.901 171.391C400.036 171.257 399.228 170.878 398.573 170.298C397.917 169.719 397.443 168.963 397.205 168.122C396.967 167.28 396.976 166.388 397.231 165.552C397.487 164.715 397.977 163.97 398.644 163.404C399.312 162.838 400.127 162.475 400.995 162.36V162.36C403.007 163.524 404.765 165.079 406.166 166.933Z" fill="black"/>
</g>
<g opacity="0.1">
<path opacity="0.1" d="M406.476 187.357C404.983 189.48 403.032 191.24 400.766 192.507C398.5 193.774 395.978 194.516 393.386 194.677C393.386 194.436 393.354 194.196 393.354 193.95C393.355 192.429 393.78 190.937 394.579 189.643C395.379 188.348 396.523 187.3 397.883 186.617C399.244 185.933 400.767 185.641 402.285 185.771C403.802 185.902 405.253 186.451 406.476 187.357V187.357Z" fill="black"/>
</g>
<g opacity="0.1">
<path opacity="0.1" d="M152.357 278.416C152.708 278.416 152.993 278.131 152.993 277.78C152.993 277.429 152.708 277.144 152.357 277.144C152.005 277.144 151.72 277.429 151.72 277.78C151.72 278.131 152.005 278.416 152.357 278.416Z" fill="black"/>
</g>
<g opacity="0.1">
<path opacity="0.1" d="M169.35 265.722C169.345 266.338 169.163 266.939 168.825 267.454C168.487 267.969 168.008 268.376 167.445 268.626C166.882 268.876 166.258 268.959 165.649 268.864C165.04 268.769 164.471 268.502 164.011 268.092C163.55 267.683 163.217 267.15 163.052 266.557C162.886 265.964 162.895 265.336 163.078 264.747C163.26 264.159 163.609 263.636 164.081 263.24C164.553 262.845 165.129 262.593 165.741 262.516C167.147 263.332 168.375 264.422 169.35 265.722V265.722Z" fill="black"/>
</g>
<g opacity="0.1">
<path opacity="0.1" d="M169.585 279.97C168.544 281.451 167.182 282.68 165.601 283.564C164.02 284.448 162.261 284.965 160.452 285.078C160.452 284.912 160.452 284.741 160.452 284.544C160.453 283.482 160.749 282.442 161.307 281.538C161.865 280.635 162.663 279.904 163.612 279.427C164.561 278.95 165.624 278.746 166.683 278.837C167.741 278.928 168.753 279.311 169.607 279.944L169.585 279.97Z" fill="black"/>
</g>
<path d="M510.601 229.766C511.144 229.766 511.585 229.326 511.585 228.783C511.585 228.241 511.144 227.8 510.601 227.8C510.058 227.8 509.617 228.241 509.617 228.783C509.617 229.326 510.058 229.766 510.601 229.766Z" fill="white"/>
<defs>
<linearGradient id="paint0_linear_801_2" x1="9611.01" y1="7271.99" x2="9611.01" y2="6988.51" gradientUnits="userSpaceOnUse">
<stop stop-color="#808080" stop-opacity="0.25"/>
<stop offset="0.54" stop-color="#808080" stop-opacity="0.12"/>
<stop offset="1" stop-color="#808080" stop-opacity="0.1"/>
</linearGradient>
<linearGradient id="paint1_linear_801_2" x1="86821.3" y1="250946" x2="86821.3" y2="15220.2" gradientUnits="userSpaceOnUse">
<stop stop-color="#808080" stop-opacity="0.25"/>
<stop offset="0.54" stop-color="#808080" stop-opacity="0.12"/>
<stop offset="1" stop-color="#808080" stop-opacity="0.1"/>
</linearGradient>
<linearGradient id="paint2_linear_801_2" x1="227.009" y1="312.672" x2="227.009" y2="347.078" gradientUnits="userSpaceOnUse">
<stop stop-color="#E0E0E0"/>
<stop offset="0.31" stop-color="#FCCC63"/>
<stop offset="0.77" stop-color="#F55F44"/>
</linearGradient>
<linearGradient id="paint3_linear_801_2" x1="7035.5" y1="21924.4" x2="7035.5" y2="24140.1" gradientUnits="userSpaceOnUse">
<stop stop-color="#E0E0E0"/>
<stop offset="0.31" stop-color="#FCCC63"/>
<stop offset="0.77" stop-color="#F55F44"/>
</linearGradient>
<linearGradient id="paint4_linear_801_2" x1="7673.96" y1="21924.4" x2="7673.96" y2="24140.1" gradientUnits="userSpaceOnUse">
<stop stop-color="#E0E0E0"/>
<stop offset="0.31" stop-color="#FCCC63"/>
<stop offset="0.77" stop-color="#F55F44"/>
</linearGradient>
<linearGradient id="paint5_linear_801_2" x1="8704.3" y1="21924.4" x2="8704.3" y2="24140.2" gradientUnits="userSpaceOnUse">
<stop stop-color="#E0E0E0"/>
<stop offset="0.31" stop-color="#FCCC63"/>
<stop offset="0.77" stop-color="#F55F44"/>
</linearGradient>
</defs>
</svg>
