<svg version="1.2" xmlns="http://www.w3.org/2000/svg" viewBox="0 0 996 802" width="996" height="802">
	<title>Novo Projeto</title>
	<defs>
		<linearGradient id="g1" x1="22208.5" y1="14631.7" x2="22208.5" y2="14063" gradientUnits="userSpaceOnUse">
			<stop offset="0" stop-color="#808080" stop-opacity=".3"/>
			<stop offset=".5" stop-color="#808080" stop-opacity=".1"/>
			<stop offset="1" stop-color="#808080" stop-opacity=".1"/>
		</linearGradient>
		<linearGradient id="g2" x1="202431.6" y1="503776.8" x2="202431.6" y2="30594.7" gradientUnits="userSpaceOnUse">
			<stop offset="0" stop-color="#808080" stop-opacity=".3"/>
			<stop offset=".5" stop-color="#808080" stop-opacity=".1"/>
			<stop offset="1" stop-color="#808080" stop-opacity=".1"/>
		</linearGradient>
		<linearGradient id="g3" x1="361.1" y1="669.5" x2="361.1" y2="738.5" gradientUnits="userSpaceOnUse">
			<stop offset="0" stop-color="#e0e0e0"/>
			<stop offset=".3" stop-color="#fccc63"/>
			<stop offset=".8" stop-color="#f55f44"/>
		</linearGradient>
		<linearGradient id="g4" x1="361.1" y1="669.5" x2="361.1" y2="738.5" gradientUnits="userSpaceOnUse">
			<stop offset="0" stop-color="#e0e0e0"/>
			<stop offset=".3" stop-color="#fccc63"/>
			<stop offset=".8" stop-color="#f55f44"/>
		</linearGradient>
		<linearGradient id="g5" x1="457.1" y1="668.5" x2="457.1" y2="737.5" gradientUnits="userSpaceOnUse">
			<stop offset="0" stop-color="#e0e0e0"/>
			<stop offset=".3" stop-color="#fccc63"/>
			<stop offset=".8" stop-color="#f55f44"/>
		</linearGradient>
		<linearGradient id="g6" x1="517.1" y1="667.5" x2="517.1" y2="736.5" gradientUnits="userSpaceOnUse">
			<stop offset="0" stop-color="#e0e0e0"/>
			<stop offset=".3" stop-color="#fccc63"/>
			<stop offset=".8" stop-color="#f55f44"/>
		</linearGradient>
		<linearGradient id="g7" x1="614.1" y1="667.5" x2="614.1" y2="736.5" gradientUnits="userSpaceOnUse">
			<stop offset="0" stop-color="#e0e0e0"/>
			<stop offset=".3" stop-color="#fccc63"/>
			<stop offset=".8" stop-color="#f55f44"/>
		</linearGradient>
	</defs>
	<style>
		.s0 { fill: #ffffff } 
		.s1 { opacity: .7;fill: url(#g1) } 
		.s2 { opacity: .7;fill: url(#g2) } 
		.s3 { fill: #535461 } 
		.s4 { opacity: .1;fill: #000000 } 
		.s5 { fill: #e0e0e0 } 
		.s6 { fill: url(#g3) } 
		.s7 { fill: url(#g4) } 
		.s8 { fill: url(#g5) } 
		.s9 { fill: url(#g6) } 
		.s10 { fill: url(#g7) } 
		.s11 { fill: #eeeeee } 
	</style>
	<path id="Layer" class="s0" d="m93.7 387.3h-2.4v2.4h-1v-2.4h-2.4v-1h2.4v-2.4h1v2.4h2.4z" />
	<path id="Layer" class="s0" d="m367.6 775.4h-5.6v4.9h-2.4l0.1-4.9h-5.7v-2h5.7v-4.8h2.3v4.8h5.6z" />
	<path id="Layer" class="s0" d="m652 184.1h-2.6v2.2h-1.1v-2.2h-2.5v-0.9h2.5l0.1-2.2h1v2.2h2.6z" />
	<path id="Layer" class="s0" d="m1018.6 388.8h-2.6v2.2h-1v-2.2h-2.6v-0.9h2.6v-2.2h1.1l-0.1 2.2h2.6z" />
	<path id="Layer" class="s0" d="m801.6 521.1h-2.6v2.2h-1v-2.2l-2.6-0.1v-0.9h2.6v-2.2h1.1l-0.1 2.3h2.6z" />
	<path id="Layer" class="s0" d="m-11.6 350.7h-1.1v1.1h-0.4v-1.1h-1.1v-0.4h1.1v-1.1h0.4v1.1h1.1z" />
	<path id="Layer" class="s0" d="m33.9 441.5h-1.1v1.1h-0.5v-1.1h-1.1v-0.4h1.1v-1.1h0.5v1.1h1.1z" />
	<path id="Layer" class="s0" d="m359.3 210h-2.5v2.2h-1.1v-2.2h-2.6v-0.9h2.6v-2.2h1.1v2.2h2.5z" />
	<path id="Layer" class="s0" d="m109.3 314.4h-1.1v1.1h-0.5v-1.1h-1.1v-0.5h1.1v-1.1h0.5v1.1h1.1z" />
	<path id="Layer" class="s0" d="m235.4 438l-2.5-0.1l-0.1 2.3h-1v-2.3h-2.6v-0.9h2.6v-2.2h1.1v2.3h2.5z" />
	<g id="Layer" style="opacity: .7">
		<path id="Layer" class="s1" d="m749.8 638.9c0-6.8 6.5-12.3 14.4-12.3c7.9 0 14.3 5.6 14.3 12.4c0 6.8-6.5 12.3-14.4 12.3c-7.9 0-14.3-5.6-14.3-12.4z" />
	</g>
	<g id="Layer" style="opacity: .7">
		<path id="Layer" class="s2" d="m666.8 660.5l-33.7-0.1l4.1 23.7l-0.2 70.9l-31.2-0.1l0.2-70.9l4.2-23.7l-33.1-0.1v0.4h-10.1l0.8-263h-12.4l-0.7 261.4l-24.3-0.1l4.3 24.9l-0.3 70.9l-31.2-0.1l0.3-70.9l4.4-24.9l-41.1-0.1l4.3 24.9l-0.2 70.9l-31.2-0.1l0.2-70.9l4.5-24.8l-30.5-0.1l0.8-261.4l-10.7-0.1l-0.8 262.6l-37.6-0.1l4.1 23.7l-0.2 70.9l-31.2-0.1l0.2-70.9l4.3-23.7l-38.1-0.1l0.8-288.3c0-26.8 7.5-53.3 22-77.1c6.9-11.2 13.2-18.1 18-22.3c1.1-1.1 2.6-1.9 4.1-2.5l-0.4-0.2c2.4-1.1 5.2-1.4 7.9-1c2.7 0.5 5.1 1.6 7 3.3c6.4 5.8 12.3 13.5 17.4 21.7c15.1 24.4 22.8 51.6 22.6 79.3v17.4h10.7l0.5-191c0.1-41.6 11.2-82.6 33-118.7c7.3-12.1 15.7-23.6 25-32.2c1.7-1.6 3.7-2.9 6-3.8c2.3-0.9 4.8-1.4 7.3-1.4c2.5 0 5 0.5 7.3 1.4c2.3 0.9 4.3 2.2 6 3.9c6.8 6.4 15.7 16.8 25.4 33.6c20.5 35.4 30.9 75.3 30.8 115.8l-0.6 192.9h12.4v-16.6c-0.1-27.6 7.9-54.9 23.1-79.2c5.1-8.1 11-15.8 17.5-21.5c1.4-1.3 3.2-2.3 5.1-2.8c2.5-1 5.2-1.3 7.8-0.8c2.6 0.4 5 1.5 6.8 3.2c4.8 4.3 11 11.3 17.8 22.5c14.4 23.8 21.8 50.3 21.6 77.2z" />
	</g>
	<path id="Layer" class="s3" d="m376 669.5h-29.6l5.4-30.9l19 0.1z" />
	<g id="Layer" style="opacity: .1">
		<path id="Layer" class="s4" d="m351.8 642.2l19 0.1l1.4 8.6h-21.9z" />
	</g>
	<path id="Layer" class="s3" d="m629.1 670.3l-29.5-0.1l5.3-30.9l19 0.1z" />
	<g id="Layer" style="opacity: .1">
		<path id="Layer" class="s4" d="m604.9 643h19l1.5 8.7l-22-0.1z" />
	</g>
	<path id="Layer" class="s3" d="m471.9 669.8l-29.5-0.1l5.4-30.8h19z" />
	<g id="Layer" style="opacity: .1">
		<path id="Layer" class="s4" d="m447.8 642.5l19 0.1l1.4 8.6l-21.9-0.1z" />
	</g>
	<path id="Layer" class="s3" d="m532.1 670l-29.6-0.1l5.4-30.8h19z" />
	<g id="Layer" style="opacity: .1">
		<path id="Layer" class="s4" d="m507.9 642.7h19l1.4 8.7l-21.9-0.1z" />
	</g>
	<path id="Layer" class="s3" d="m376.8 383.5l211 0.6l-0.1 7.3l-210.9-0.6z" />
	<path id="Layer" class="s5" d="m637.6 291.3c13.6 23.4 20.6 49.1 20.4 75.2l-0.8 280.8l-93.4-0.3l0.8-279.6c-0.1-26.8 7.4-53.3 21.9-77.1c4.8-7.9 10.4-15.3 16.6-20.9c1.1-1.1 2.4-1.9 4-2.5c1.5-0.6 3.1-0.9 4.8-0.9c1.7 0.1 3.3 0.4 4.8 0.9c1.5 0.6 2.9 1.5 4 2.5c4.5 4.2 10.4 11 16.9 21.9z" />
	<path id="Layer" class="s5" d="m353 268.7c1.1-1.1 2.4-1.9 4-2.5c1.5-0.6 3.1-0.9 4.8-0.9c1.6 0 3.3 0.3 4.8 0.9c1.5 0.6 2.9 1.4 4 2.5c6.1 5.7 11.6 13.1 16.5 21.1c14.3 23.8 21.6 50.3 21.4 77.2l-0.8 279.6l-93.4-0.3l0.8-280.8c0-26.1 7.1-51.8 20.9-75.1c6.5-10.8 12.4-17.6 17-21.7z" />
	<path id="Layer" class="s3" d="m315.6 371.5l22.2 0.2l-0.1 23.5l-22.1-0.1z" />
	<path id="Layer" class="s3" d="m386.3 371.7l22.2 0.2l-0.1 23.5l-22.1-0.1z" />
	<path id="Layer" class="s3" d="m564.6 372.2l22.1 0.2v23.5l-22.2-0.1z" />
	<path id="Layer" class="s3" d="m635.3 372.4l22.1 0.2l-0.1 23.5l-22.1-0.1z" />
	<g id="Layer" style="opacity: .1">
		<path id="Layer" class="s4" d="m408.5 366.6l-0.8 279.6l-10.6-0.1l0.8-279.5c0.3-26.9-7.1-53.4-21.4-77.2c-4.8-8-10.3-15.4-16.5-21.1c-1-0.9-2.2-1.7-3.5-2.3c2.3-1 4.9-1.3 7.5-0.9c2.5 0.5 4.9 1.6 6.6 3.2c6.1 5.7 11.6 13.2 16.5 21.1c14.3 23.9 21.6 50.4 21.4 77.2z" />
	</g>
	<g id="Layer" style="opacity: .1">
		<path id="Layer" class="s4" d="m573 367.9l-0.8 279.6l-9.5-0.1l0.8-279.5c0-26.9 7.5-53.4 21.9-77.1c4.9-8 10.5-15.4 16.6-21c1.7-1.6 3.9-2.7 6.3-3.1c2.5-0.5 5-0.2 7.3 0.6c-1.5 0.6-2.9 1.5-4.1 2.5c-6.1 5.6-11.7 13.1-16.6 21c-14.4 23.8-21.9 50.2-21.9 77.1z" />
	</g>
	<path id="Layer" class="s6" d="m361.4 738.5h-0.8c-3.8 0-7.5-1.3-10.2-3.6c-2.6-2.4-4.1-5.5-4.1-8.8l0.1-56.6h29.6l-0.2 56.7c0 3.3-1.5 6.4-4.2 8.7c-2.7 2.3-6.4 3.6-10.2 3.6z" />
	<path id="Layer copy 3" class="s7" d="m361.4 738.5h-0.8c-3.8 0-7.5-1.3-10.2-3.6c-2.6-2.4-4.1-5.5-4.1-8.8l0.1-56.6h29.6l-0.2 56.7c0 3.3-1.5 6.4-4.2 8.7c-2.7 2.3-6.4 3.6-10.2 3.6z" />
	<path id="Layer copy 2" class="s8" d="m457.4 737.5h-0.8c-3.8 0-7.5-1.3-10.2-3.6c-2.6-2.4-4.1-5.5-4.1-8.8l0.1-56.6h29.6l-0.2 56.7c0 3.3-1.5 6.4-4.2 8.7c-2.7 2.3-6.4 3.6-10.2 3.6z" />
	<path id="Layer copy 4" class="s9" d="m517.4 736.5h-0.8c-3.8 0-7.5-1.3-10.2-3.6c-2.6-2.4-4.1-5.5-4.1-8.8l0.1-56.6h29.6l-0.2 56.7c0 3.3-1.5 6.4-4.2 8.7c-2.7 2.3-6.4 3.6-10.2 3.6z" />
	<path id="Layer copy" class="s10" d="m614.4 736.5h-0.8c-3.8 0-7.5-1.3-10.2-3.6c-2.6-2.4-4.1-5.5-4.1-8.8l0.1-56.6h29.6l-0.2 56.7c0 3.3-1.5 6.4-4.2 8.7c-2.7 2.3-6.4 3.6-10.2 3.6z" />
	<path id="Layer" class="s11" d="m523.2 82.7c19.3 34.4 29.2 73.3 29.1 112.7l-1.4 450.4l-133.2-0.4l1.3-448.6c0.2-40.5 10.7-80.4 31.3-115.6c7-11.8 15-23 23.7-31.4c1.6-1.6 3.5-2.8 5.7-3.7c2.2-0.9 4.5-1.3 6.9-1.3c2.4 0 4.8 0.5 7 1.3c2.1 0.9 4 2.2 5.6 3.8c6.5 6.2 14.9 16.4 24 32.8z" />
	<path id="Layer" class="s3" d="m519.8 111.6v3.8c0 6.5-6.2 11.8-13.7 11.8l-42.2-0.2c-7.5 0-13.6-5.3-13.6-11.8v-3.8c0-6.5 6.1-11.8 13.7-11.8l42.1 0.1c7.6 0.1 13.7 5.4 13.7 11.9z" />
	<g id="Layer" style="opacity: .1">
		<path id="Layer" class="s4" d="m419.7 212.1l131.9 0.4v4.4l-131.9-0.4z" />
	</g>
	<g id="Layer" style="opacity: .1">
	</g>
	<g id="Layer" style="opacity: .1">
	</g>
	<g id="Layer" style="opacity: .1">
	</g>
	<g id="Layer" style="opacity: .1">
	</g>
	<g id="Layer" style="opacity: .1">
		<path id="Layer" class="s4" d="m102.7 348.8c0-0.4 0.3-0.7 0.7-0.7c0.3 0 0.6 0.3 0.6 0.7c0 0.3-0.3 0.6-0.6 0.6c-0.4 0-0.7-0.3-0.7-0.6z" />
	</g>
	<g id="Layer" style="opacity: .1">
		<path id="Layer" class="s4" d="m227.2 574.9c0 1.3-0.4 2.5-1.2 3.5c-0.8 1-1.9 1.8-3.2 2.3c-1.3 0.5-2.8 0.7-4.2 0.5c-1.4-0.2-2.7-0.7-3.8-1.6c-1.1-0.8-1.8-1.8-2.2-3c-0.4-1.2-0.4-2.5 0-3.7c0.5-1.1 1.3-2.2 2.4-3c1.1-0.8 2.4-1.3 3.9-1.4c3.2 1.6 6.1 3.8 8.3 6.4z" />
	</g>
	<g id="Layer" style="opacity: .1">
		<path id="Layer" class="s4" d="m227.7 603.5c-2.4 3-5.6 5.4-9.3 7.2c-3.7 1.8-7.8 2.8-12 3q0-0.5 0-1.1c0-2.1 0.7-4.2 2-6c1.3-1.8 3.2-3.3 5.4-4.2c2.2-1 4.7-1.4 7.2-1.2c2.4 0.2 4.8 1 6.8 2.3z" />
	</g>
	<path id="Layer" class="s0" d="m460.6 299.8c0-0.6 0.5-1 1-1c0.5 0 1 0.4 1 1c0 0.5-0.5 1-1 1c-0.5 0-1-0.5-1-1z" />
</svg>